<svg xmlns="http://www.w3.org/2000/svg" width="100" height="32" viewBox="0 0 100 32">
  <g fill="none" fill-rule="evenodd">
    <rect width="100" height="32"/>
    <g fill="#FFF" transform="translate(11 8)">
      <path d="M17.6805665 12.2139595L29.6080208 12.2139595 29.6080208 9.69120823C26.9252617 9.69120823 24.2565782 9.62406645 21.5930718 9.71062272 19.0591572 9.79297252 17.3432398 8.29562991 17.5923924 5.65428842 17.669565 4.8351587 17.674904 3.96312448 17.9746961 3.22084378 18.4807671 1.96812375 19.5461373 1.35931767 20.9177711 1.35802337 23.6940433 1.3551112 26.4703155 1.35494941 29.2465877 1.3576998 31.0925822 1.35964125 32.2396551 2.28360923 32.7017199 4.21599822L20.9794121 4.21599822 20.9794121 6.70089127 21.9342815 6.70089127C24.4411776 6.70089127 26.947912 6.69344905 29.4546463 6.70315629 31.6234068 6.71173103 32.9892162 8.08385017 32.9929373 10.2343286 32.993908 10.7734043 33.0084689 11.3131272 32.9879219 11.8513939 32.9149558 13.7690603 31.5209953 15.1220885 29.6039761 15.1272657 26.692935 15.1351933 23.7817321 15.1413412 20.8708528 15.1253242 19.172732 15.1159406 17.8559441 13.931333 17.6805665 12.2139595M57.9399419 12.2981699L57.9399419 9.28390839C56.4715592 9.28390839 55.0512274 9.29636602 53.6308956 9.28067264 52.0780599 9.26336139 51.266696 8.63514082 50.7979978 7.07534826L60.8741186 7.07534826C60.8741186 8.78366168 60.9199044 10.4762817 60.860852 12.1653424 60.8053589 13.7553892 59.5034555 14.972516 57.8933471 14.9844883 54.7410809 15.0074621 51.5883294 15.0064914 48.4360632 14.9880476 46.8707699 14.9788257 45.4942825 13.7332243 45.4549681 12.1612977 45.3875028 9.46931678 45.3933271 6.77329114 45.4541592 4.08098662 45.4886199 2.55274261 46.8727113 1.24679452 48.4326657 1.2264093 51.5577515 1.18580066 54.6838082 1.18693317 57.808894 1.22268819 59.4149578 1.24097017 60.7343342 2.45728803 60.755852 3.88651813L48.3878505 3.88651813 48.3878505 12.2981699 57.9399419 12.2981699z"/>
      <rect width="2.462" height="3.692" x="38.154" y="2.462"/>
      <rect width="2.462" height="3.692" x="38.154" y="9.846"/>
      <path d="M66.5845999 12.4651507L75.556845 12.4651507 75.556845 3.80013983 66.5845999 3.80013983 66.5845999 12.4651507zM71.0667587 14.9934028C69.6647088 14.9938881 68.262659 15.0014921 66.860771 14.9921085 64.9668874 14.9794891 63.6669255 13.6779092 63.6628808 11.7874232 63.6575418 9.33391688 63.662719 6.88057238 63.6666019 4.4270661 63.6693523 2.63963863 64.9236902 1.25813582 66.7156477 1.22707263 69.6535455 1.17659496 72.5937084 1.17772747 75.5316062 1.22901408 77.2255205 1.25862118 78.5287182 2.62896066 78.5667383 4.40522479 78.6199663 6.88461707 78.6173777 9.36659794 78.570783 11.846152 78.5361605 13.7037952 77.1525544 14.9785183 75.2727463 14.9908142 73.8708583 15.0001978 72.4688085 14.9927556 71.0667587 14.9934028zM14.9086141 4.37975945L3.67441891 4.37975945 3.67441891 12.0044772 14.8518267 12.0044772C15.1553399 13.4028059 13.5753239 15.0912194 11.9843064 15.1125754 9.02149328 15.1523751 6.05722409 15.161597 3.09457278 15.1140315 1.43010376 15.0874983.0526456278 13.6414423.0270832148 11.9470426-.00980431791 9.49596317-.00737750654 7.04375118.0249799783 4.59250992.050057029 2.70962787 1.45194506 1.3661451 3.34048966 1.36064433 6.16918099 1.35223138 8.9980341 1.34673061 11.8267254 1.36727762 13.4627199 1.3790881 14.8283675 2.69393449 14.9086141 4.37975945"/>
    </g>
  </g>
</svg>
