<svg xmlns="http://www.w3.org/2000/svg" xmlns:xlink="http://www.w3.org/1999/xlink" width="100" height="32" viewBox="0 0 100 32">
  <defs>
    <polygon id="vgo-a" points="0 .084 23.907 .084 23.907 24 0 24"/>
    <polygon id="vgo-c" points=".017 .088 11.542 .088 11.542 8.882 .017 8.882"/>
  </defs>
  <g fill="none" fill-rule="evenodd">
    <rect width="100" height="32"/>
    <g transform="translate(30 4)">
      <mask id="vgo-b" fill="#fff">
        <use xlink:href="#vgo-a"/>
      </mask>
      <path fill="#FFF" d="M23.9074971,0.0846295082 C22.4662237,2.96472787 21.0215216,5.84305574 19.5846563,8.72531803 C17.1262727,13.6567279 14.6729829,18.5907934 12.2164604,23.5231869 C12.145538,23.6658098 12.0632522,23.8028262 11.9545176,24.0000393 C11.8437257,23.8004656 11.7543869,23.6536131 11.6779788,23.5001705 C7.88656653,15.8899082 4.09652571,8.27895738 0.303546122,0.669481967 C0.218713469,0.499121311 0.101946122,0.344891803 -2.93877551e-05,0.182990164 C0.0980277551,0.150236066 0.19588898,0.089252459 0.293946122,0.0888590164 C1.79634612,0.0827606557 3.29874612,0.0846295082 4.80114612,0.0846295082 C4.83406041,0.175809836 4.85845224,0.271416393 4.90135837,0.357580328 C7.18145633,4.93794098 9.46292571,9.51761311 11.7461584,14.0963016 C11.7996441,14.2037115 11.8747788,14.3003016 11.9674482,14.4450885 C12.0583543,14.2784656 12.1230073,14.1684984 12.1797257,14.0546951 C14.4479706,9.50403934 16.7157257,4.95299016 18.9820114,0.40135082 C19.0322645,0.300236066 19.0653747,0.190465574 19.1064196,0.0846295082 L23.9074971,0.0846295082 Z" mask="url(#vgo-b)"/>
      <path fill="#FFF" d="M24.0571993,14.2148475 C24.3735709,13.6131638 24.6314803,13.1089761 24.9058944,12.6151514 C24.9472554,12.5408133 25.064975,12.4726084 25.147697,12.4721854 C26.6999262,12.4637259 28.2521554,12.4659465 29.9032134,12.4659465 C29.6286005,12.9891681 29.398729,13.4292749 29.1669684,13.8683242 C28.8024749,14.5586214 28.4539889,15.259493 28.0676219,15.9357263 C27.3944125,17.114138 26.4510644,17.8014744 25.0978849,17.7771533 C23.6243011,17.7506115 22.149922,17.773558 20.6759406,17.7700684 C19.6504671,17.7676363 19.2782184,17.1293652 19.7717661,16.1321987 C20.4727151,14.7156513 21.222482,13.3263859 21.9513695,11.9254886 C22.1596657,11.5251416 22.3545395,11.1161236 22.5787437,10.7262453 C23.2562283,9.54804497 24.1963948,8.86409241 25.5497733,8.88957672 C27.0398616,8.9175989 28.5307453,8.89274905 30.0212314,8.89729604 C30.9678605,8.90004539 31.3388167,9.50204631 30.9713404,10.4235 C30.5210428,11.5524236 30.2820242,11.6748752 28.8908641,11.4904576 C28.8311094,10.6758053 28.8150025,10.6587806 28.0471402,10.6578289 C27.1197002,10.6566657 26.1920613,10.6698837 25.2648201,10.6535991 C24.5992665,10.6418615 24.1077074,10.9521146 23.7886513,11.5410032 C23.1527265,12.7147623 22.5354937,13.9003646 21.9307884,15.0926289 C21.6068605,15.731323 21.7739946,16.0044599 22.4628137,16.0105931 C23.3405411,16.0186296 24.2202569,15.9750631 25.0955981,16.0231766 C26.0594278,16.0761544 26.7483463,15.7612486 27.276494,14.2148475 L24.0571993,14.2148475 Z"/>
      <g transform="translate(27.556 8.889)">
        <mask id="vgo-d" fill="#fff">
          <use xlink:href="#vgo-c"/>
        </mask>
        <path fill="#FFF" d="M7.16328889,1.83706144 C6.68595556,1.83706144 6.2081284,1.85023791 5.73119012,1.83381961 C5.09000494,1.81164967 4.60081975,2.11000261 4.28931358,2.66717908 C3.62807901,3.85076078 2.99420247,5.05222484 2.3732642,6.26006797 C2.08141235,6.82770196 2.25859753,7.1231268 2.86402963,7.12950588 C3.86807901,7.13985882 4.87242469,7.12636863 5.87657284,7.13452549 C6.4344,7.13902222 6.90551111,6.90383268 7.18047407,6.42383268 C7.89632593,5.17395033 8.57474568,3.89896993 9.23351111,2.61426405 C9.47143704,2.14995033 9.25919012,1.85201569 8.74363457,1.84040784 C8.21701728,1.82859085 7.6901037,1.83779346 7.16328889,1.83706144 M8.08477037,0.0952575163 C8.92358519,0.0957803922 9.76259753,0.0862640523 10.6013136,0.0984993464 C11.3615111,0.109688889 11.7039309,0.622211765 11.469758,1.39010719 C11.4047704,1.60291765 11.3072889,1.80798954 11.2026963,2.00333595 C10.3200296,3.65342745 9.43943704,5.30477386 8.54393086,6.94702222 C7.84921481,8.22064314 6.84684444,8.92223791 5.40328889,8.88072157 C3.97336296,8.83951895 2.54146173,8.87455163 1.11054815,8.87068235 C0.128819753,8.86806797 -0.241155556,8.27376732 0.203288889,7.33290458 C0.636474074,6.41598954 1.1355358,5.53379346 1.60881975,4.63821176 C2.08220247,3.74242092 2.54531358,2.84014641 3.03844938,1.9568 C3.71449877,0.745924183 4.67716543,0.0399372549 6.06175802,0.090551634 C6.73533827,0.115231373 7.41049877,0.0947346405 8.08477037,0.0952575163" mask="url(#vgo-d)"/>
      </g>
    </g>
  </g>
</svg>
